<svg width="76" height="72" viewBox="0 0 76 72" fill="none" xmlns="http://www.w3.org/2000/svg">
<g clip-path="url(#clip0)">
<path d="M54.9892 0.529771C55.6453 -0.0629709 56.691 -0.0458823 57.3248 0.567714C57.943 1.16639 57.943 2.11539 57.3248 2.71392L22.1562 35.6074L57.3281 68.4979C57.9842 69.0906 58.0023 70.0684 57.3687 70.6822C56.7349 71.2958 55.6893 71.3127 55.0331 70.7201C55.0193 70.7077 55.0058 70.6951 54.9925 70.6822L18.6545 36.6981C18.0097 36.0949 18.0097 35.1171 18.6545 34.5138L54.9892 0.529771Z" fill="#F44336"/>
<path d="M56.1588 71.1365C57.071 71.1381 57.8118 70.4476 57.8135 69.5945C57.8142 69.1832 57.6396 68.7885 57.3282 68.498L22.1563 35.6076L57.3282 2.71727C57.9741 2.11323 57.9741 1.13397 57.3282 0.529933C56.6823 -0.0741052 55.6352 -0.0741052 54.9893 0.529933L18.6513 34.5141C18.0065 35.1172 18.0065 36.095 18.6513 36.6984L54.9893 70.6823C55.299 70.973 55.7199 71.1365 56.1588 71.1365Z" fill="#FAFAFA"/>
</g>
<defs>
<clipPath id="clip0">
<rect width="76" height="71.0769" fill="white" transform="matrix(-1 0 0 1 76 0.0769348)"/>
</clipPath>
</defs>
</svg>
