<svg width="78" height="78" viewBox="0 0 78 78" fill="none" xmlns="http://www.w3.org/2000/svg">
<path d="M5.92188 22.731H17.972C18.603 22.731 19.1145 22.2195 19.1145 21.5884C19.1145 20.9572 18.603 20.4458 17.972 20.4458H5.92188C5.29087 20.4458 4.7793 20.9572 4.7793 21.5884C4.7793 22.2195 5.29072 22.731 5.92188 22.731Z" fill="#4DB0E4"/>
<path d="M17.5588 28.2319H12.7987C12.1677 28.2319 11.6561 28.7434 11.6561 29.3745C11.6561 30.0057 12.1677 30.5171 12.7987 30.5171H17.5588C18.1898 30.5171 18.7014 30.0057 18.7014 29.3745C18.7014 28.7434 18.1898 28.2319 17.5588 28.2319Z" fill="#4DB0E4"/>
<path d="M1.14258 36.1553H12.7987C13.4297 36.1553 13.9413 35.6439 13.9413 35.0127C13.9413 34.3815 13.4297 33.8701 12.7987 33.8701H1.14258C0.51157 33.8701 0 34.3815 0 35.0127C0 35.6439 0.51157 36.1553 1.14258 36.1553Z" fill="#4DB0E4"/>
<path d="M19.1145 56.4111C19.1145 55.78 18.603 55.2686 17.972 55.2686H5.92188C5.29087 55.2686 4.7793 55.78 4.7793 56.4111C4.7793 57.0423 5.29087 57.5537 5.92188 57.5537H17.972C18.603 57.5537 19.1145 57.0423 19.1145 56.4111Z" fill="#4DB0E4"/>
<path d="M17.5588 47.4829H12.7987C12.1677 47.4829 11.6561 47.9943 11.6561 48.6255C11.6561 49.2566 12.1677 49.7681 12.7987 49.7681H17.5588C18.1898 49.7681 18.7014 49.2566 18.7014 48.6255C18.7014 47.9943 18.1898 47.4829 17.5588 47.4829Z" fill="#4DB0E4"/>
<path d="M13.9413 42.9873C13.9413 42.3561 13.4297 41.8447 12.7987 41.8447H1.14258C0.51157 41.8447 0 42.3561 0 42.9873C0 43.6185 0.51157 44.1299 1.14258 44.1299H12.7987C13.4297 44.1299 13.9413 43.6185 13.9413 42.9873Z" fill="#4DB0E4"/>
<path d="M48.6782 25.2631C49.3094 25.2631 49.8208 24.7517 49.8208 24.1205V22.3765C49.8208 21.7453 49.3094 21.2339 48.6782 21.2339C48.0471 21.2339 47.5356 21.7453 47.5356 22.3765V24.1205C47.5356 24.7517 48.0471 25.2631 48.6782 25.2631Z" fill="#4DB0E4"/>
<path d="M61.2406 26.4376C60.7942 25.9915 60.0709 25.9915 59.6247 26.4376L58.3915 27.6708C57.9453 28.1172 57.9453 28.8405 58.3915 29.2867C58.838 29.7329 59.5612 29.7328 60.0074 29.2867L61.2406 28.0535C61.6867 27.6073 61.6867 26.8839 61.2406 26.4376Z" fill="#4DB0E4"/>
<path d="M63.5577 37.8574C62.9265 37.8574 62.4151 38.3688 62.4151 39C62.4151 39.6312 62.9265 40.1426 63.5577 40.1426H65.3016C65.9327 40.1426 66.4441 39.6312 66.4441 39C66.4441 38.3688 65.9327 37.8574 65.3016 37.8574H63.5577Z" fill="#4DB0E4"/>
<path d="M60.0074 48.713C59.561 48.2669 58.8377 48.2669 58.3915 48.713C57.9453 49.1593 57.9453 49.8827 58.3915 50.3289L59.6247 51.5621C60.0712 52.0083 60.7944 52.0082 61.2406 51.5621C61.6868 51.1157 61.6868 50.3924 61.2406 49.9462L60.0074 48.713Z" fill="#4DB0E4"/>
<path d="M47.5356 53.8794V55.6233C47.5356 56.2544 48.0471 56.7659 48.6782 56.7659C49.3094 56.7659 49.8208 56.2544 49.8208 55.6233V53.8794C49.8208 53.2482 49.3094 52.7368 48.6782 52.7368C48.0471 52.7368 47.5356 53.2484 47.5356 53.8794Z" fill="#4DB0E4"/>
<path d="M37.3489 48.713L36.1157 49.9462C35.6695 50.3926 35.6695 51.1159 36.1157 51.5621C36.562 52.0083 37.2854 52.0082 37.7314 51.5621L38.9646 50.3289C39.4109 49.8825 39.4109 49.1592 38.9646 48.713C38.5186 48.2669 37.7951 48.2669 37.3489 48.713Z" fill="#4DB0E4"/>
<path d="M32.0548 37.8574C31.4238 37.8574 30.9122 38.3688 30.9122 39C30.9122 39.6312 31.4238 40.1426 32.0548 40.1426H33.7988C34.4298 40.1426 34.9414 39.6312 34.9414 39C34.9414 38.3688 34.4298 37.8574 33.7988 37.8574H32.0548Z" fill="#4DB0E4"/>
<path d="M38.9648 27.6708L37.7316 26.4376C37.2854 25.9915 36.5619 25.9915 36.1158 26.4376C35.6696 26.8839 35.6696 27.6073 36.1158 28.0535L37.3491 29.2867C37.7954 29.7329 38.5188 29.7328 38.9648 29.2867C39.411 28.8405 39.411 28.1172 38.9648 27.6708Z" fill="#4DB0E4"/>
<path d="M54.8222 38.9997C54.8222 38.3685 54.3108 37.8571 53.6797 37.8571H49.8208V29.374C49.8208 28.7429 49.3094 28.2314 48.6782 28.2314C48.0471 28.2314 47.5356 28.7429 47.5356 29.374V38.9997C47.5356 39.6309 48.0471 40.1423 48.6782 40.1423H53.6797C54.3107 40.1423 54.8222 39.6309 54.8222 38.9997Z" fill="#4DB0E4"/>
<path d="M70.3434 38.8114C70.9733 38.7732 71.4529 38.2316 71.4146 37.6018C70.6878 25.6119 60.7008 16.2197 48.6781 16.2197C36.117 16.2197 25.8978 26.4389 25.8978 39.0001C25.8978 51.5612 36.117 61.7804 48.6781 61.7804C59.9316 61.7804 69.534 53.5353 71.2044 42.4088C71.2981 41.7848 70.8682 41.203 70.244 41.1093C69.6215 41.016 69.0382 41.4454 68.9445 42.0697C67.4439 52.0656 58.8128 59.4954 48.6781 59.4954C37.3771 59.4954 28.183 50.3013 28.183 39.0003C28.183 27.6993 37.3771 18.505 48.6781 18.505C59.4947 18.505 68.4797 26.9542 69.1336 37.7404C69.1717 38.3699 69.7128 38.848 70.3434 38.8114Z" fill="#4DB0E4"/>
<path d="M48.6781 9.67822C44.6591 9.67822 40.7214 10.512 37.0972 12.0712H16.9377C16.3067 12.0712 15.7951 12.5827 15.7951 13.2138C15.7951 13.845 16.3067 14.3564 16.9377 14.3564H32.7987C30.6541 15.7366 28.6799 17.4014 26.9392 19.3234C26.5157 19.791 26.5513 20.5135 27.019 20.9372C27.4869 21.3609 28.2091 21.3251 28.633 20.8574C33.752 15.2051 41.0583 11.9634 48.6781 11.9634C63.5861 11.9634 75.7148 24.0919 75.7148 39C75.7148 53.9079 63.5863 66.0366 48.6781 66.0366C33.77 66.0366 21.6415 53.908 21.6415 39C21.6415 33.7795 23.1327 28.7125 25.9538 24.3466C26.2963 23.8166 26.1443 23.1095 25.6143 22.767C25.0843 22.4247 24.3771 22.5764 24.0345 23.1066C20.9739 27.8426 19.3563 33.3384 19.3563 39C19.3563 49.3237 24.7197 58.4174 32.806 63.6436H16.9378C16.3068 63.6436 15.7953 64.155 15.7953 64.7861C15.7953 65.4173 16.3068 65.9287 16.9378 65.9287H37.0815C40.6402 67.4672 44.5611 68.3217 48.6782 68.3217C64.8462 68.3217 78 55.1681 78 39C78 22.8319 64.8462 9.67822 48.6781 9.67822Z" fill="#4DB0E4"/>
</svg>
