<svg width="55" height="55" viewBox="0 0 55 55" fill="none" xmlns="http://www.w3.org/2000/svg">
<path d="M8.03324 24.9219C7.90772 24.922 7.7837 24.8947 7.66988 24.8418C7.55607 24.7888 7.45523 24.7116 7.37445 24.6155C7.29368 24.5195 7.23492 24.4069 7.20233 24.2857C7.16974 24.1644 7.16409 24.0376 7.18579 23.9139C7.9248 19.7478 9.92557 15.9092 12.9175 12.9174C15.9093 9.9255 19.7479 7.92476 23.9141 7.18577C24.1386 7.1464 24.3695 7.19782 24.5561 7.32873C24.7427 7.45964 24.8696 7.6593 24.909 7.8838C24.9484 8.1083 24.897 8.33925 24.766 8.52584C24.6351 8.71243 24.4355 8.83937 24.211 8.87874C20.3925 9.55603 16.8742 11.3898 14.132 14.132C11.3898 16.8742 9.55605 20.3925 8.87876 24.211C8.84386 24.4099 8.73998 24.5903 8.58536 24.7203C8.43074 24.8503 8.23526 24.9217 8.03324 24.9219Z" fill="#4DB0E4"/>
<path d="M30.9365 47.8273C30.7213 47.8274 30.5139 47.7467 30.3553 47.6013C30.1968 47.4559 30.0985 47.2563 30.08 47.0419C30.0615 46.8275 30.124 46.614 30.2553 46.4435C30.3866 46.2731 30.5771 46.1581 30.7891 46.1212C34.6076 45.4439 38.1259 43.6102 40.8681 40.868C43.6103 38.1258 45.4441 34.6075 46.1214 30.789C46.1402 30.6772 46.1809 30.5702 46.2412 30.4741C46.3015 30.3781 46.3802 30.295 46.4728 30.2295C46.5654 30.164 46.67 30.1175 46.7806 30.0927C46.8913 30.0678 47.0057 30.0651 47.1174 30.0847C47.2291 30.1043 47.3358 30.1458 47.4314 30.2068C47.527 30.2678 47.6095 30.3472 47.6743 30.4402C47.7391 30.5333 47.7848 30.6383 47.8088 30.7491C47.8328 30.8599 47.8347 30.9744 47.8143 31.0859C47.0753 35.252 45.0745 39.0907 42.0826 42.0826C39.0908 45.0745 35.2521 47.0752 31.086 47.8142C31.0366 47.8229 30.9866 47.8273 30.9365 47.8273Z" fill="#4DB0E4"/>
<path d="M7.73438 28.3594C8.20899 28.3594 8.59375 27.9746 8.59375 27.5C8.59375 27.0254 8.20899 26.6406 7.73438 26.6406C7.25976 26.6406 6.875 27.0254 6.875 27.5C6.875 27.9746 7.25976 28.3594 7.73438 28.3594Z" fill="#4DB0E4"/>
<path d="M27.5 8.59375C27.9746 8.59375 28.3594 8.20899 28.3594 7.73438C28.3594 7.25976 27.9746 6.875 27.5 6.875C27.0254 6.875 26.6406 7.25976 26.6406 7.73438C26.6406 8.20899 27.0254 8.59375 27.5 8.59375Z" fill="#4DB0E4"/>
<path d="M47.2656 28.3594C47.7402 28.3594 48.125 27.9746 48.125 27.5C48.125 27.0254 47.7402 26.6406 47.2656 26.6406C46.791 26.6406 46.4062 27.0254 46.4062 27.5C46.4062 27.9746 46.791 28.3594 47.2656 28.3594Z" fill="#4DB0E4"/>
<path d="M27.5 48.125C27.9746 48.125 28.3594 47.7402 28.3594 47.2656C28.3594 46.791 27.9746 46.4062 27.5 46.4062C27.0254 46.4062 26.6406 46.791 26.6406 47.2656C26.6406 47.7402 27.0254 48.125 27.5 48.125Z" fill="#4DB0E4"/>
<path d="M27.5 53.2813C22.4009 53.2813 17.4164 51.7692 13.1766 48.9364C8.93691 46.1035 5.63245 42.077 3.68112 37.3661C1.7298 32.6552 1.21924 27.4714 2.21402 22.4703C3.20881 17.4692 5.66424 12.8755 9.26983 9.26988C14.1048 4.43496 20.6623 1.71874 27.5 1.71875C34.3376 1.71876 40.8951 4.435 45.7301 9.26994C50.565 14.1049 53.2812 20.6624 53.2812 27.5001C53.2812 34.3377 50.5649 40.8952 45.73 45.7302C43.3416 48.1317 40.5005 50.0356 37.3714 51.3318C34.2422 52.6279 30.887 53.2905 27.5 53.2813ZM27.5 3.43752C22.7409 3.43752 18.0886 4.84875 14.1316 7.49278C10.1745 10.1368 7.09034 13.8948 5.2691 18.2917C3.44787 22.6885 2.97135 27.5267 3.89981 32.1944C4.82827 36.8621 7.12 41.1496 10.4852 44.5148C14.9978 49.0274 21.1182 51.5625 27.5 51.5625C33.8817 51.5625 40.0021 49.0274 44.5147 44.5148C49.0273 40.0022 51.5625 33.8818 51.5625 27.5C51.5625 21.1182 49.0273 14.9978 44.5147 10.4853C42.2855 8.24384 39.6339 6.46684 36.7133 5.25709C33.7927 4.04735 30.6612 3.42889 27.5 3.43752Z" fill="#4DB0E4"/>
<path d="M31.7969 31.7969C32.0248 31.7969 32.2434 31.7063 32.4045 31.5452C32.5657 31.384 32.6562 31.1654 32.6562 30.9375C32.6562 30.7096 32.5657 30.491 32.4045 30.3298C32.2434 30.1687 32.0248 30.0781 31.7969 30.0781H25.7812V28.3594H30.9375C32.305 28.3594 33.6165 27.8161 34.5835 26.8491C35.5505 25.8822 36.0938 24.5706 36.0938 23.2031C36.0938 21.8356 35.5505 20.5241 34.5835 19.5571C33.6165 18.5901 32.305 18.0469 30.9375 18.0469H24.9219C24.694 18.0469 24.4754 18.1374 24.3142 18.2986C24.153 18.4597 24.0625 18.6783 24.0625 18.9062V26.6406H23.2031C22.9752 26.6406 22.7566 26.7312 22.5955 26.8923C22.4343 27.0535 22.3438 27.2721 22.3438 27.5C22.3438 27.7279 22.4343 27.9465 22.5955 28.1077C22.7566 28.2688 22.9752 28.3594 23.2031 28.3594H24.0625V30.0781H23.2031C22.9752 30.0781 22.7566 30.1687 22.5955 30.3298C22.4343 30.491 22.3438 30.7096 22.3438 30.9375C22.3438 31.1654 22.4343 31.384 22.5955 31.5452C22.7566 31.7063 22.9752 31.7969 23.2031 31.7969H24.0625V37.8125C24.0625 38.0404 24.153 38.259 24.3142 38.4202C24.4754 38.5813 24.694 38.6719 24.9219 38.6719C25.1498 38.6719 25.3684 38.5813 25.5295 38.4202C25.6907 38.259 25.7812 38.0404 25.7812 37.8125V31.7969H31.7969ZM34.375 23.2031C34.374 24.1145 34.0115 24.9882 33.367 25.6327C32.7226 26.2771 31.8489 26.6396 30.9375 26.6406H25.7812V19.7656H30.9375C31.8489 19.7666 32.7226 20.1291 33.367 20.7736C34.0115 21.418 34.374 22.2918 34.375 23.2031Z" fill="#4DB0E4"/>
</svg>
