<svg width="59" height="58" viewBox="0 0 59 58" fill="none" xmlns="http://www.w3.org/2000/svg">
<g clip-path="url(#clip0)">
<path d="M58.9798 20.3714C58.9145 20.0794 58.6976 19.8426 58.4091 19.748L38.6624 13.2774C38.2098 13.1293 37.7202 13.3696 37.5692 13.8147C37.4183 14.2599 37.663 14.7411 38.1159 14.8894L54.6105 20.2944L33.5289 23.8987L5.96003 4.35247L34.4247 13.6799C34.8775 13.828 35.367 13.5878 35.5179 13.1426C35.6689 12.6974 35.4241 12.2162 34.9713 12.0679L1.13759 0.981109C1.12607 0.977371 1.11789 0.976578 1.10798 0.974086C0.862759 0.903172 0.590922 0.938515 0.369788 1.09043C0.0301926 1.32333 -0.0935689 1.76026 0.0745577 2.13216L22.9831 52.8028C23.0971 53.055 23.3286 53.237 23.6039 53.291C23.6601 53.302 23.7167 53.3074 23.7728 53.3074C23.992 53.3074 24.2055 53.2253 24.3676 53.0742L33.9268 44.1608L42.4018 49.4227C42.4057 49.4252 42.4101 49.4257 42.4141 49.4274C42.5472 49.5073 42.701 49.554 42.8627 49.554C42.8951 49.554 42.9276 49.5522 42.9604 49.5485C43.3589 49.5042 43.6741 49.1962 43.7214 48.8047L45.5934 33.3251L58.7279 21.1728C58.9495 20.9678 59.0452 20.6635 58.9798 20.3714ZM55.4456 21.8762L44.6996 31.8187L35.4887 25.2882L55.4456 21.8762ZM37.797 38.21L25.2979 49.8646L29.9851 30.7563L37.797 38.21ZM38.6782 39.7302L41.2046 46.6696L35.2206 42.9542L38.6782 39.7302ZM42.4389 45.0172L39.8589 37.9307C39.8572 37.9259 39.8545 37.9216 39.8527 37.9168C39.8082 37.8013 39.7392 37.695 39.6471 37.6072L26.8572 25.4039C26.5148 25.0772 25.9676 25.0853 25.6351 25.4218C25.3027 25.7586 25.3108 26.2965 25.6533 26.6232L28.5443 29.3816L23.5292 49.8268L3.46901 5.45628L23.1715 24.2551C23.5139 24.582 24.0611 24.574 24.3936 24.2373C24.726 23.9005 24.7178 23.3626 24.3754 23.0359L9.96752 9.28891L43.8541 33.3146L42.4389 45.0172Z" fill="#4DB0E4"/>
<path d="M56.2268 43.9242C56.0057 43.9242 55.7844 43.8412 55.6157 43.6754L47.9795 36.1686C47.6419 35.8367 47.6419 35.2988 47.9795 34.967C48.317 34.6353 48.8642 34.6353 49.2016 34.967L56.8379 42.4738C57.1754 42.8057 57.1754 43.3436 56.8379 43.6754C56.6692 43.8412 56.4479 43.9242 56.2268 43.9242Z" fill="#4DB0E4"/>
<path d="M42.8635 57.0609C42.6424 57.0609 42.4211 56.978 42.2524 56.8121L34.6162 49.3053C34.2787 48.9734 34.2787 48.4355 34.6162 48.1037C34.9537 47.7721 35.5009 47.7721 35.8384 48.1037L43.4746 55.6106C43.8121 55.9425 43.8121 56.4803 43.4746 56.8121C43.3058 56.9779 43.0846 57.0609 42.8635 57.0609Z" fill="#4DB0E4"/>
<path d="M56.2268 57.0609C56.0057 57.0609 55.7844 56.978 55.6157 56.8121L47.9795 49.3053C47.6419 48.9734 47.6419 48.4355 47.9795 48.1037C48.317 47.7721 48.8642 47.7721 49.2016 48.1037L56.8379 55.6106C57.1754 55.9425 57.1754 56.4803 56.8379 56.8121C56.6692 56.9779 56.4479 57.0609 56.2268 57.0609Z" fill="#4DB0E4"/>
</g>
<defs>
<clipPath id="clip0">
<rect width="59" height="58" fill="white"/>
</clipPath>
</defs>
</svg>
