<svg width="52" height="57" viewBox="0 0 52 57" fill="none" xmlns="http://www.w3.org/2000/svg">
<path d="M51.1875 19.1805C51.1875 16.953 49.5341 15.1406 47.502 15.1406C46.5181 15.1406 45.5918 15.561 44.8963 16.3243L42.4881 18.9641L39.8125 21.8969V13.2881C42.5644 12.8535 44.6875 10.2591 44.6875 7.125C44.6875 3.68719 42.1362 0.890625 39 0.890625H6.5C3.36375 0.890625 0.8125 3.68719 0.8125 7.125V51.6562C0.8125 52.1479 1.1765 52.5469 1.625 52.5469H5.6875V55.2188C5.6875 55.7104 6.0515 56.1094 6.5 56.1094H39C39.4485 56.1094 39.8125 55.7104 39.8125 55.2188V33.3218L47.6994 24.6765L48.5339 23.7619C48.113 26.0597 47.0868 28.1723 45.5414 29.8671L41.6764 34.1038L42.8252 35.3632L46.6903 31.1265C48.9962 28.5989 50.2856 25.2608 50.3612 21.6992C50.8869 20.9849 51.1875 20.1121 51.1875 19.1805ZM46.0452 17.5836C46.4344 17.157 46.9519 16.9219 47.502 16.9219C48.6379 16.9219 49.5625 17.9354 49.5625 19.1805C49.5625 19.7835 49.348 20.3508 48.9588 20.7774L47.125 22.7875L44.2114 19.5938L46.0452 17.5836ZM43.0625 20.8531L43.9449 21.8203L33.7188 33.0297L32.8364 32.0625L43.0625 20.8531ZM23.7388 44.3558L25.4101 40.6909L27.8785 43.3966L24.5351 45.2286L23.7388 44.3558ZM26.3364 39.1875L31.6875 33.3218L34.6011 36.5156L29.25 42.3813L26.3364 39.1875ZM39 2.67188C41.2401 2.67188 43.0625 4.66955 43.0625 7.125C43.0625 9.58045 41.2401 11.5781 39 11.5781H10.4731C11.5294 10.4453 12.1875 8.86884 12.1875 7.125C12.1875 5.38116 11.5294 3.80475 10.4731 2.67188H39ZM7.3125 11.4882V8.90625C7.3125 8.41552 7.67731 8.01562 8.125 8.01562H10.4804C10.1562 9.75769 8.90175 11.1328 7.3125 11.4882ZM2.4375 50.7656V7.125C2.4375 4.66955 4.25994 2.67188 6.5 2.67188C8.46138 2.67188 10.1026 4.20464 10.4804 6.23438H8.125C6.78113 6.23438 5.6875 7.43316 5.6875 8.90625V50.7656H2.4375ZM38.1875 54.3281H7.3125V13.3594H38.1875V23.6782L34.6011 27.6094H10.5625V29.3906H32.9761L31.3511 31.1719H10.5625V32.9531H29.7261L24.6131 38.5578C24.5497 38.6273 24.5083 38.7101 24.4701 38.7938L24.4611 38.7885L22.0236 44.1322C21.8676 44.4751 21.9286 44.8893 22.1764 45.16L22.4136 45.4219L20.5506 47.4641L21.6994 48.7234L23.5625 46.6812L23.8006 46.9422C23.9566 47.1132 24.1646 47.2031 24.375 47.2031C24.4977 47.2031 24.6228 47.172 24.7382 47.1096L29.6132 44.4377L29.6083 44.4279C29.6847 44.3861 29.7603 44.3407 29.8236 44.2712L36.3236 37.1462L38.1875 35.1031V54.3281ZM35.75 35.2563L34.8676 34.2891L45.0938 23.0797L45.9761 24.0469L35.75 35.2563Z" fill="#4DB0E4"/>
<path d="M10.5625 16.9219H34.9375V18.7031H10.5625V16.9219Z" fill="#4DB0E4"/>
<path d="M10.5625 20.4844H34.9375V22.2656H10.5625V20.4844Z" fill="#4DB0E4"/>
<path d="M10.5625 24.0469H34.9375V25.8281H10.5625V24.0469Z" fill="#4DB0E4"/>
<path d="M10.5625 45.4219H19.5V47.2031H10.5625V45.4219Z" fill="#4DB0E4"/>
<path d="M10.5625 48.9844H34.9375V50.7656H10.5625V48.9844Z" fill="#4DB0E4"/>
</svg>
