<svg width="70" height="64" viewBox="0 0 70 64" fill="none" xmlns="http://www.w3.org/2000/svg">
<path d="M59.4863 37.2752L59.162 37.4352C57.852 35.9817 55.5823 35.4184 53.8531 36.2197C53.847 36.2224 53.8408 36.2254 53.8348 36.2283L53.0692 36.6052C52.1561 35.8983 51.0268 35.4662 49.8352 35.3678C48.6436 35.2693 47.4478 35.5094 46.411 36.0552L42.2882 38.1052H36.8022C35.6144 38.1037 34.442 37.8581 33.372 37.3866L32.6173 37.0528C30.4687 36.097 28.0727 35.7035 25.6946 35.9158C23.3165 36.1282 21.0491 36.9381 19.1434 38.2559C19.1255 38.2684 19.108 38.2809 19.0913 38.2951L17.2692 39.778C16.5807 40.3372 15.7667 40.752 14.8844 40.9934L13.8496 37.8877C13.7984 37.734 13.6944 37.5993 13.5532 37.5037C13.4119 37.4081 13.2408 37.3564 13.065 37.3564H4.25306C4.13696 37.3564 4.02218 37.379 3.91631 37.4225C3.81043 37.4661 3.71589 37.5297 3.63892 37.6092C3.56194 37.6887 3.5043 37.7822 3.4698 37.8835C3.43529 37.9849 3.42472 38.0918 3.43877 38.1972L6.37603 60.2172C6.40028 60.399 6.49648 60.5665 6.6465 60.6879C6.79651 60.8094 6.98996 60.8764 7.19033 60.8764H20.4075C20.5357 60.8764 20.6621 60.849 20.7766 60.7962C20.891 60.7435 20.9904 60.6669 21.0667 60.5728C21.143 60.4786 21.1941 60.3693 21.2159 60.2538C21.2376 60.1383 21.2295 60.0198 21.1921 59.9077L19.4558 54.6984L24.8636 51.5734C25.5871 51.2074 26.436 51.1069 27.2377 51.2926C27.2546 51.2964 27.2717 51.2999 27.2889 51.3027L38.2892 53.1547C41.2786 53.6437 44.3608 53.2459 47.0853 52.0192C47.1201 52.0035 47.1536 51.9855 47.1856 51.9654L66.212 40.0214C66.3843 39.9132 66.505 39.7489 66.5493 39.5621C66.5936 39.3753 66.5582 39.1801 66.4504 39.0163C65.7581 37.9621 64.6477 37.1927 63.3504 36.8684C62.0531 36.544 60.669 36.6898 59.4863 37.2752ZM54.6032 37.5537C55.6033 37.0958 56.8623 37.4712 57.6665 38.1728L50.4516 41.7316L50.0277 41.9357C49.7993 41.3426 49.4654 40.788 49.0395 40.2943L54.6032 37.5537ZM47.2049 37.3681C47.2113 37.3647 47.2186 37.3614 47.2243 37.3579C47.8705 37.0164 48.6051 36.8397 49.3514 36.8461C50.0978 36.8525 50.8286 37.0419 51.4677 37.3944L47.7994 39.2002C47.1 38.7335 46.3021 38.4052 45.4563 38.2361L47.2049 37.3681ZM7.91603 59.3764L5.17961 38.8564H12.457L19.2998 59.3764H7.91603ZM46.3045 50.6976C43.909 51.7637 41.2053 52.1072 38.5827 51.6786L27.6095 49.8311C26.4026 49.5586 25.1274 49.7166 24.0432 50.2729C24.0305 50.2793 24.0178 50.2863 24.0054 50.2935L18.9584 53.2107L15.3627 42.4293C16.4714 42.1238 17.494 41.6009 18.3592 40.8972L20.1555 39.4347C21.8198 38.2907 23.7972 37.5889 25.8698 37.4066C27.9424 37.2243 30.0298 37.5686 31.9021 38.4016L32.6567 38.7353C33.9496 39.3051 35.366 39.6018 36.8013 39.6036H44.1192C45.1946 39.6049 46.2359 39.9487 47.0642 40.5758C47.8925 41.2028 48.4561 42.0741 48.6582 43.0398L43.3542 42.8204C41.426 42.7412 39.4939 42.8228 37.582 43.0643C37.3681 43.0933 37.1755 43.1983 37.0459 43.3565C36.9163 43.5147 36.8602 43.7133 36.8898 43.9091C36.9195 44.1048 37.0325 44.282 37.2042 44.402C37.376 44.5221 37.5926 44.5753 37.807 44.55C39.6198 44.321 41.4518 44.2436 43.28 44.3191L49.522 44.5772C49.5345 44.5772 49.5469 44.5779 49.5592 44.5779C49.7768 44.5779 49.9854 44.4989 50.1392 44.3583C50.2931 44.2176 50.3795 44.0268 50.3795 43.8279C50.3795 43.7066 50.3739 43.5863 50.3658 43.4667L51.2218 43.0542L60.2656 38.5947C60.9602 38.2508 61.7595 38.1263 62.5394 38.2406C63.3193 38.3549 64.0361 38.7016 64.5783 39.2267L46.3045 50.6976Z" fill="#4DB0E4"/>
<path d="M10.5238 56.2734C10.5238 56.7404 10.6753 57.1969 10.9591 57.5852C11.2428 57.9735 11.6462 58.2761 12.1181 58.4549C12.59 58.6336 13.1093 58.6803 13.6103 58.5892C14.1112 58.4981 14.5714 58.2732 14.9326 57.943C15.2938 57.6128 15.5398 57.1921 15.6394 56.734C15.7391 56.276 15.6879 55.8012 15.4924 55.3697C15.297 54.9383 14.966 54.5695 14.5412 54.3101C14.1165 54.0506 13.6172 53.9121 13.1064 53.9121C12.4217 53.9128 11.7652 54.1618 11.2811 54.6045C10.7969 55.0471 10.5246 55.6473 10.5238 56.2734ZM13.1064 55.4121C13.2927 55.4121 13.4749 55.4626 13.6298 55.5573C13.7847 55.6519 13.9054 55.7864 13.9767 55.9438C14.048 56.1011 14.0667 56.2743 14.0303 56.4414C13.994 56.6084 13.9042 56.7619 13.7725 56.8824C13.6408 57.0028 13.4729 57.0848 13.2902 57.1181C13.1075 57.1513 12.9181 57.1342 12.7459 57.069C12.5738 57.0039 12.4267 56.8935 12.3232 56.7518C12.2197 56.6102 12.1644 56.4437 12.1644 56.2734C12.1649 56.0451 12.2643 55.8263 12.4408 55.6649C12.6174 55.5035 12.8567 55.4127 13.1064 55.4124V55.4121Z" fill="#4DB0E4"/>
<path d="M41.2374 11.2882V8.81671C41.2296 7.31147 40.5702 5.87029 39.4033 4.80841C38.2364 3.74653 36.6571 3.15039 35.0107 3.15039C33.3643 3.15039 31.785 3.74653 30.6181 4.80841C29.4512 5.87029 28.7918 7.31147 28.7841 8.81671V11.2882C28.7918 12.7935 29.4512 14.2346 30.6181 15.2965C31.785 16.3584 33.3643 16.9545 35.0107 16.9545C36.6571 16.9545 38.2364 16.3584 39.4033 15.2965C40.5702 14.2346 41.2296 12.7935 41.2374 11.2882ZM30.4247 11.2882V8.81671C30.4313 7.70864 30.9174 6.64802 31.7767 5.86663C32.636 5.08523 33.7987 4.64661 35.0107 4.64661C36.2227 4.64661 37.3854 5.08523 38.2447 5.86663C39.104 6.64802 39.5901 7.70864 39.5967 8.81671V11.2882C39.5901 12.3963 39.104 13.4569 38.2447 14.2383C37.3854 15.0197 36.2227 15.4583 35.0107 15.4583C33.7987 15.4583 32.636 15.0197 31.7767 14.2383C30.9174 13.4569 30.4313 12.3963 30.4247 11.2882Z" fill="#4DB0E4"/>
<path d="M24.9741 32.4279H45.0475C45.265 32.4279 45.4737 32.3488 45.6275 32.2082C45.7813 32.0675 45.8678 31.8768 45.8678 31.6779V29.9564H59.6094C59.8269 29.9564 60.0356 29.8773 60.1894 29.7367C60.3433 29.596 60.4297 29.4053 60.4297 29.2064V24.3384C60.4288 22.91 59.8332 21.5354 58.7639 20.494C57.6947 19.4526 56.2319 18.8224 54.6727 18.7314C54.2352 18.702 54.0103 18.9552 53.8279 19.1586C53.465 19.564 53.0057 19.8883 52.4849 20.1068C51.9641 20.3254 51.3957 20.4323 50.8228 20.4195C50.25 20.4067 49.6879 20.2745 49.1794 20.033C48.6709 19.7915 48.2295 19.4471 47.8886 19.026C47.8103 18.9291 47.7076 18.8508 47.5892 18.7979C47.4708 18.7449 47.3402 18.7189 47.2084 18.7219C46.1428 18.7437 45.1022 19.0213 44.1909 19.5267C43.5893 18.8871 42.8533 18.3643 42.0267 17.9895C41.2 17.6146 40.2995 17.3952 39.3784 17.3444C38.9546 17.3286 38.7402 17.5639 38.5325 17.7944C38.1067 18.2702 37.5677 18.6508 36.9566 18.9072C36.3455 19.1637 35.6784 19.2892 35.0062 19.2742C34.334 19.2592 33.6744 19.104 33.0777 18.8206C32.481 18.5372 31.9629 18.133 31.563 17.6387C31.4848 17.5417 31.3822 17.4634 31.2637 17.4104C31.1453 17.3575 31.0146 17.3315 30.8829 17.3347C29.0839 17.3728 27.3732 18.0551 26.1189 19.2347C26.0153 19.3316 25.917 19.432 25.8211 19.5339C24.9741 19.0624 24.0141 18.7868 23.0243 18.7311C22.5883 18.7017 22.3617 18.955 22.1795 19.1584C21.8166 19.5638 21.3572 19.8881 20.8365 20.1066C20.3157 20.3251 19.7472 20.432 19.1744 20.4192C18.6016 20.4064 18.0395 20.2743 17.5311 20.0328C17.0226 19.7913 16.5811 19.4469 16.2403 19.0257C16.1618 18.9289 16.0591 18.8508 15.9407 18.7978C15.8224 18.7449 15.6918 18.7188 15.5601 18.7216C13.9578 18.7589 12.4348 19.367 11.3158 20.4163C10.1969 21.4655 9.57054 22.8729 9.57031 24.3384V29.2064C9.57031 29.4053 9.65674 29.596 9.81058 29.7367C9.96442 29.8773 10.1731 29.9564 10.3906 29.9564H24.1538V31.6779C24.1538 31.8768 24.2403 32.0675 24.3941 32.2082C24.5479 32.3488 24.7566 32.4279 24.9741 32.4279ZM46.8582 20.2456C47.3639 20.7704 47.9857 21.1911 48.6825 21.4799C49.3793 21.7687 50.1352 21.919 50.9003 21.9208C51.6653 21.9226 52.4221 21.776 53.1205 21.4906C53.8189 21.2051 54.4432 20.7874 54.9519 20.265C56.0186 20.4121 56.9923 20.904 57.6964 21.6514C58.4004 22.3987 58.7881 23.352 58.7891 24.3384V28.4564H45.8678V23.645C45.8686 22.6462 45.6087 21.6617 45.1097 20.7732C45.6457 20.4874 46.2414 20.3077 46.8582 20.2456ZM30.5293 18.8575C31.0965 19.4578 31.7981 19.9398 32.5866 20.2707C33.3752 20.6017 34.2322 20.7739 35.0999 20.7758C35.9676 20.7777 36.8255 20.6092 37.6158 20.2817C38.406 19.9541 39.1101 19.4752 39.6804 18.8774C40.94 19.0366 42.0941 19.607 42.9298 20.4832C43.7656 21.3594 44.2265 22.4824 44.2277 23.645V30.9279H25.7945V23.645C25.8026 22.4545 26.2898 21.3085 27.1631 20.4255C28.0364 19.5425 29.2346 18.9843 30.5293 18.8575ZM11.2109 28.4564V24.3384C11.2179 23.3279 11.6281 22.3544 12.3645 21.6009C13.101 20.8474 14.113 20.3656 15.2105 20.2461C15.7162 20.7708 16.338 21.1913 17.0347 21.48C17.7314 21.7686 18.4872 21.9188 19.2521 21.9206C20.017 21.9224 20.7736 21.7757 21.4719 21.4903C22.1703 21.2049 22.7944 20.7873 23.303 20.265C23.8678 20.3422 24.4113 20.5175 24.904 20.7815C24.4094 21.6682 24.1523 22.6496 24.1538 23.645V28.4564H11.2109Z" fill="#4DB0E4"/>
<path d="M56.3766 13.5226V11.3592C56.3766 10.0128 55.7916 8.72162 54.7503 7.76959C53.709 6.81756 52.2967 6.28271 50.8242 6.28271C49.3516 6.28271 47.9393 6.81756 46.898 7.76959C45.8567 8.72162 45.2717 10.0128 45.2717 11.3592V13.5226C45.2717 14.869 45.8567 16.1602 46.898 17.1122C47.9393 18.0642 49.3516 18.5991 50.8242 18.5991C52.2967 18.5991 53.709 18.0642 54.7503 17.1122C55.7916 16.1602 56.3766 14.869 56.3766 13.5226ZM46.9124 13.5226V11.3592C46.9124 10.4107 47.3245 9.50097 48.0581 8.83025C48.7917 8.15952 49.7867 7.78271 50.8242 7.78271C51.8616 7.78271 52.8566 8.15952 53.5902 8.83025C54.3238 9.50097 54.736 10.4107 54.736 11.3592V13.5226C54.736 14.4711 54.3238 15.3808 53.5902 16.0516C52.8566 16.7223 51.8616 17.0991 50.8242 17.0991C49.7867 17.0991 48.7917 16.7223 48.0581 16.0516C47.3245 15.3808 46.9124 14.4711 46.9124 13.5226Z" fill="#4DB0E4"/>
<path d="M24.7284 13.5226V11.3592C24.7284 10.6926 24.5848 10.0324 24.3057 9.41652C24.0267 8.80061 23.6177 8.24098 23.1021 7.76959C22.5865 7.29819 21.9744 6.92426 21.3008 6.66914C20.6271 6.41402 19.9051 6.28271 19.176 6.28271C18.4468 6.28271 17.7248 6.41402 17.0511 6.66914C16.3775 6.92426 15.7654 7.29819 15.2498 7.76959C14.7342 8.24098 14.3252 8.80061 14.0462 9.41652C13.7672 10.0324 13.6235 10.6926 13.6235 11.3592V13.5226C13.6235 14.1892 13.7672 14.8494 14.0462 15.4653C14.3252 16.0812 14.7342 16.6408 15.2498 17.1122C15.7654 17.5836 16.3775 17.9575 17.0511 18.2127C17.7248 18.4678 18.4468 18.5991 19.176 18.5991C19.9051 18.5991 20.6271 18.4678 21.3008 18.2127C21.9744 17.9575 22.5865 17.5836 23.1021 17.1122C23.6177 16.6408 24.0267 16.0812 24.3057 15.4653C24.5848 14.8494 24.7284 14.1892 24.7284 13.5226ZM15.2642 13.5226V11.3592C15.2642 10.4107 15.6763 9.50097 16.4099 8.83025C17.1435 8.15952 18.1385 7.78271 19.176 7.78271C20.2134 7.78271 21.2084 8.15952 21.942 8.83025C22.6756 9.50097 23.0877 10.4107 23.0877 11.3592V13.5226C23.0877 13.9923 22.9866 14.4573 22.79 14.8913C22.5934 15.3252 22.3053 15.7194 21.942 16.0516C21.5788 16.3837 21.1475 16.6471 20.6729 16.8268C20.1983 17.0066 19.6897 17.0991 19.176 17.0991C18.6622 17.0991 18.1536 17.0066 17.679 16.8268C17.2044 16.6471 16.7731 16.3837 16.4099 16.0516C16.0467 15.7194 15.7585 15.3252 15.5619 14.8913C15.3653 14.4573 15.2642 13.9923 15.2642 13.5226Z" fill="#4DB0E4"/>
</svg>
