<svg width="49" height="49" viewBox="0 0 49 49" fill="none" xmlns="http://www.w3.org/2000/svg">
<g clip-path="url(#clip0)">
<path d="M33.6168 47.5385H10.3339L10.9083 46.8539C10.9084 46.8538 10.9086 46.8536 10.9087 46.8535C10.9088 46.8533 10.9089 46.8532 10.9091 46.853L16.798 39.8353C17.0538 39.5305 17.0141 39.0761 16.7093 38.8204C16.4045 38.5645 15.95 38.6043 15.6943 38.9091L10.2681 45.3755L8.56021 43.9423L33.3262 14.4292L35.0341 15.8623L17.6754 36.5482C17.4196 36.853 17.4594 37.3075 17.7642 37.5632C18.0689 37.819 18.5233 37.7791 18.7791 37.4744L41.7416 10.1106C43.3918 8.14406 43.0834 5.15881 41.0542 3.45582L38.3233 1.16438C36.2939 -0.538512 33.3004 -0.324113 31.6501 1.64246L0.817458 38.3851L0.817362 38.3852L0.817266 38.3853L0.168787 39.1581C0.0542874 39.2946 -0.00555592 39.4686 0.000687766 39.6465L0.278484 47.5339C0.293469 47.9567 0.489905 48.357 0.817555 48.632C1.0918 48.8621 1.43654 48.9865 1.78744 48.9865C1.83364 48.9865 33.617 48.9792 33.617 48.9792C34.015 48.9792 34.3374 48.6568 34.3374 48.2588C34.3374 47.8608 34.0148 47.5385 33.6168 47.5385ZM1.64768 45.4777L3.77985 47.2669L1.79253 47.5455C1.77082 47.5488 1.75276 47.5361 1.74364 47.5284C1.73451 47.5208 1.71914 47.5047 1.71838 47.4832L1.64768 45.4777ZM9.33424 46.4883L5.7006 46.9976L1.57948 43.5393L1.45038 39.8724L1.45806 39.8633L9.34202 46.4792L9.33424 46.4883ZM7.45642 43.016L5.39408 41.2854L25.034 17.881C25.2898 17.5762 25.2501 17.1217 24.9453 16.866C24.6404 16.6101 24.1861 16.65 23.9304 16.9548L4.29039 40.3592L2.38414 38.7596L27.1502 9.24641L29.0564 10.8461L25.9114 14.594C25.6556 14.8988 25.6954 15.3532 26.0002 15.6089C26.1351 15.7223 26.2995 15.7775 26.4629 15.7775C26.6685 15.7775 26.8727 15.69 27.0151 15.5202L30.1601 11.7723L32.2224 13.5029L7.45642 43.016ZM32.7539 2.56864C33.8934 1.21059 35.9765 1.07601 37.3971 2.26807L40.128 4.55951C41.5487 5.75177 41.7774 7.8265 40.638 9.18435L38.0221 12.3017L37.277 11.6765C36.9721 11.4206 36.5177 11.4605 36.262 11.7652C36.0062 12.07 36.046 12.5244 36.3508 12.7801L37.0959 13.4054L35.9605 14.7583L28.0765 8.14262L29.2117 6.78976L33.9966 10.8049C34.1316 10.9183 34.2959 10.9735 34.4593 10.9735C34.665 10.9735 34.8691 10.886 35.0116 10.7162C35.2674 10.4114 35.2276 9.95694 34.9228 9.70124L30.1378 5.68606L32.7539 2.56864Z" fill="#4DB0E4"/>
<path d="M48.2796 47.5376H37.3984C37.0004 47.5376 36.678 47.8601 36.678 48.258C36.678 48.656 37.0004 48.9785 37.3984 48.9785H48.2796C48.6776 48.9785 49 48.656 49 48.258C49 47.8601 48.6776 47.5376 48.2796 47.5376Z" fill="#4DB0E4"/>
</g>
<defs>
<clipPath id="clip0">
<rect width="49" height="49" fill="white"/>
</clipPath>
</defs>
</svg>
