<svg width="40" height="41" viewBox="0 0 40 41" fill="none" xmlns="http://www.w3.org/2000/svg">
<g clip-path="url(#clip0)">
<path d="M33.1917 22.2565C32.545 21.4194 32.73 21.047 33.1917 20.2987C33.2 20.2902 38.5383 12.7291 39.0883 10.1649L39.0917 10.1632C39.365 9.22874 39.0917 8.54199 37.77 8.54199H33.3967C32.2833 8.54199 31.77 9.13137 31.495 9.79078C31.495 9.79078 29.2683 15.254 26.1183 18.7954C25.1017 19.8187 24.6317 20.1467 24.0767 20.1467C23.8033 20.1467 23.3783 19.8187 23.3783 18.8842V10.1632C23.3783 9.04253 23.0667 8.54199 22.145 8.54199H15.2683C14.57 8.54199 14.155 9.06474 14.155 9.55162C14.155 10.6142 15.73 10.8585 15.8933 13.8481V20.3346C15.8933 21.756 15.6417 22.0173 15.0833 22.0173C13.5967 22.0173 9.98833 16.5319 7.85 10.2537C7.41833 9.0357 6.99667 8.5437 5.875 8.5437H1.5C0.251667 8.5437 0 9.13308 0 9.79249C0 10.9576 1.48667 16.7505 6.91333 24.4039C10.53 29.628 15.6233 32.4587 20.2567 32.4587C23.0417 32.4587 23.3817 31.83 23.3817 30.7486C23.3817 25.7569 23.13 25.2854 24.525 25.2854C25.1717 25.2854 26.285 25.6134 28.885 28.1332C31.8567 31.121 32.345 32.4587 34.0083 32.4587H38.3817C39.6283 32.4587 40.26 31.83 39.8967 30.5897C39.065 27.9811 33.445 22.6152 33.1917 22.2565Z" fill="#6F6F6F"/>
</g>
<defs>
<clipPath id="clip0">
<rect width="40" height="41" fill="white"/>
</clipPath>
</defs>
</svg>
