<svg width="40" height="41" viewBox="0 0 40 41" fill="none" xmlns="http://www.w3.org/2000/svg">
<path d="M27.5 0H12.5C5.5975 0 0 5.73744 0 12.8125V28.1875C0 35.2626 5.5975 41 12.5 41H27.5C34.4025 41 40 35.2626 40 28.1875V12.8125C40 5.73744 34.4025 0 27.5 0ZM36.25 28.1875C36.25 33.1331 32.325 37.1562 27.5 37.1562H12.5C7.675 37.1562 3.75 33.1331 3.75 28.1875V12.8125C3.75 7.86688 7.675 3.84375 12.5 3.84375H27.5C32.325 3.84375 36.25 7.86688 36.25 12.8125V28.1875Z" fill="#FAFAFA"/>
<path d="M20 10.25C14.4775 10.25 10 14.8394 10 20.5C10 26.1606 14.4775 30.75 20 30.75C25.5225 30.75 30 26.1606 30 20.5C30 14.8394 25.5225 10.25 20 10.25ZM20 26.9062C16.555 26.9062 13.75 24.0311 13.75 20.5C13.75 16.9663 16.555 14.0938 20 14.0938C23.445 14.0938 26.25 16.9663 26.25 20.5C26.25 24.0311 23.445 26.9062 20 26.9062Z" fill="#FAFAFA"/>
<path d="M30.75 10.8468C31.486 10.8468 32.0825 10.2353 32.0825 9.48103C32.0825 8.72671 31.486 8.11522 30.75 8.11522C30.0141 8.11522 29.4175 8.72671 29.4175 9.48103C29.4175 10.2353 30.0141 10.8468 30.75 10.8468Z" fill="#FAFAFA"/>
</svg>
