<svg width="40" height="41" viewBox="0 0 40 41" fill="none" xmlns="http://www.w3.org/2000/svg">
<path d="M38.3191 14.4707C38.3194 10.62 36.8469 6.99026 34.1733 4.24977C31.4996 1.50928 27.9584 0 24.2014 0H15.8365C15.8362 0 15.8362 0 15.8362 0C12.0798 0 8.53821 1.50928 5.86487 4.24946C3.19122 6.99026 1.71875 10.62 1.71875 14.4707V21.2104C1.71875 24.1927 2.6062 27.0611 4.28528 29.5063C5.7666 31.6634 7.75879 33.3485 10.0815 34.4167V38.288C10.0815 40.2896 11.1749 41 12.1112 41C12.7802 41 13.4491 40.6615 14.1003 39.9943L18.3081 35.6814L24.2017 35.6811C27.9584 35.6811 31.4996 34.1718 34.1733 31.4316C36.8469 28.6911 38.3194 25.061 38.3194 21.2104L38.3191 14.4707ZM24.2017 33.2787L17.8229 33.279C17.5119 33.279 17.2141 33.4054 16.9943 33.6306L12.4432 38.2955C12.4374 38.3017 12.4313 38.3077 12.4252 38.3136C12.4252 38.3052 12.4252 38.2964 12.4252 38.288V33.615C12.4252 33.1167 12.1252 32.6703 11.6711 32.4926C7.12036 30.7128 4.06281 26.1787 4.06281 21.2104V14.4707C4.06281 11.2616 5.29144 8.23491 7.52228 5.94799C9.75311 3.6617 12.7057 2.40234 15.8365 2.40234H24.2014C27.3322 2.40234 30.285 3.6617 32.5159 5.9483C34.747 8.23522 35.9756 11.2619 35.9753 14.4707L35.9756 21.2104C35.9753 27.865 30.6937 33.2787 24.2017 33.2787Z" fill="#FAFAFA"/>
<path d="M23.1354 19.646C22.6779 19.1768 21.936 19.1768 21.4783 19.646L20.5316 20.616L16.8634 16.8564L17.8101 15.8864C18.0298 15.6612 18.1534 15.3556 18.1534 15.0368C18.1534 14.7184 18.0298 14.4128 17.8101 14.1876L13.3722 9.63877C13.1525 9.41355 12.8546 9.28687 12.5436 9.28687C12.233 9.28687 11.9348 9.41355 11.7151 9.63877L8.60841 12.8231C6.92841 14.5451 6.92841 17.3475 8.60871 19.0705L18.3716 29.078C19.1834 29.9098 20.2658 30.3677 21.4191 30.3677C22.5726 30.3677 23.6551 29.9098 24.4669 29.078L27.5736 25.894C27.7933 25.6685 27.9169 25.3632 27.9169 25.0444C27.9169 24.726 27.7933 24.4204 27.5736 24.1952L23.1354 19.646ZM22.8095 27.3789C22.4405 27.7571 21.9467 27.9654 21.4191 27.9654C20.8914 27.9654 20.3977 27.7571 20.0287 27.3789L10.2661 17.3716C9.49952 16.5859 9.49921 15.3071 10.2658 14.5217L12.5436 12.1866L15.3241 15.0368L14.3774 16.0069C14.1577 16.2321 14.0341 16.5377 14.0341 16.8561C14.0341 17.1749 14.1577 17.4802 14.3774 17.7057L19.7028 23.1642C20.1605 23.633 20.9024 23.6334 21.3602 23.1642L22.3068 22.1941L25.0873 25.0441L22.8095 27.3789Z" fill="#FAFAFA"/>
<path d="M20.3033 5.31363C19.6561 5.31363 19.1315 5.85134 19.1315 6.5148C19.1315 7.17795 19.6561 7.71597 20.3033 7.71597C22.9852 7.71597 25.5069 8.78639 27.4033 10.7305C29.2999 12.6742 30.3442 15.2586 30.3442 18.0079C30.3442 18.671 30.8688 19.2091 31.5161 19.2091C32.1631 19.2091 32.688 18.6713 32.688 18.0079C32.688 14.6171 31.3998 11.4293 29.0607 9.03163C26.7215 6.63398 23.6115 5.31363 20.3033 5.31363Z" fill="#FAFAFA"/>
<path d="M25.3235 18.0076C25.3235 18.6707 25.8484 19.2087 26.4954 19.2087C27.1426 19.2087 27.6672 18.6707 27.6672 18.0076C27.6672 13.8457 24.3637 10.4599 20.3033 10.4599C19.6561 10.4599 19.1315 10.9976 19.1315 11.6611C19.1315 12.3245 19.6561 12.8622 20.3033 12.8622C23.0716 12.8622 25.3235 15.1704 25.3235 18.0076Z" fill="#FAFAFA"/>
</svg>
