<svg width="40" height="25" viewBox="0 0 40 25" fill="none" xmlns="http://www.w3.org/2000/svg">
<path d="M33.1917 14.2563C32.545 13.4192 32.73 13.0468 33.1917 12.2986C33.2 12.29 38.5383 4.72893 39.0883 2.16473L39.0917 2.16302C39.365 1.22856 39.0917 0.541809 37.77 0.541809H33.3967C32.2833 0.541809 31.77 1.13118 31.495 1.7906C31.495 1.7906 29.2683 7.25385 26.1183 10.7952C25.1017 11.8185 24.6317 12.1465 24.0767 12.1465C23.8033 12.1465 23.3783 11.8185 23.3783 10.8841V2.16302C23.3783 1.04235 23.0667 0.541809 22.145 0.541809H15.2683C14.57 0.541809 14.155 1.06456 14.155 1.55143C14.155 2.61402 15.73 2.85831 15.8933 5.84789V12.3344C15.8933 13.7558 15.6417 14.0171 15.0833 14.0171C13.5967 14.0171 9.98833 8.53169 7.85 2.25356C7.41833 1.03552 6.99667 0.543517 5.875 0.543517H1.5C0.251667 0.543517 0 1.13289 0 1.79231C0 2.95739 1.48667 8.75035 6.91333 16.4037C10.53 21.6278 15.6233 24.4585 20.2567 24.4585C23.0417 24.4585 23.3817 23.8298 23.3817 22.7484C23.3817 17.7567 23.13 17.2852 24.525 17.2852C25.1717 17.2852 26.285 17.6132 28.885 20.133C31.8567 23.1209 32.345 24.4585 34.0083 24.4585H38.3817C39.6283 24.4585 40.26 23.8298 39.8967 22.5896C39.065 19.9809 33.445 14.6151 33.1917 14.2563Z" fill="#FAFAFA"/>
</svg>
