<svg width="38" height="39" viewBox="0 0 38 39" fill="none" xmlns="http://www.w3.org/2000/svg">
<path fill-rule="evenodd" clip-rule="evenodd" d="M32.2648 5.84715C28.7565 2.24692 24.0908 0.263342 19.1202 0.26123C8.8777 0.26123 0.541824 8.80527 0.537704 19.3066C0.536331 22.6636 1.39189 25.9405 3.0181 28.8289L0.381836 38.6987L10.2327 36.05C12.947 37.5677 16.0028 38.3675 19.1126 38.3684H19.1204C29.3617 38.3684 37.6985 29.8237 37.7024 19.3219C37.7044 14.2324 35.7734 9.44714 32.2648 5.84715ZM19.1202 35.1517H19.1138C16.3425 35.1506 13.6245 34.3872 11.2528 32.9451L10.6891 32.6018L4.84343 34.1737L6.40372 28.3318L6.03636 27.7329C4.49026 25.2123 3.67384 22.299 3.67522 19.3078C3.67842 10.5793 10.6071 3.47812 19.1263 3.47812C23.2517 3.47953 27.1297 5.12832 30.0456 8.12069C32.9616 11.1131 34.5665 15.0905 34.5651 19.3207C34.5614 28.0498 27.6332 35.1517 19.1202 35.1517ZM27.592 23.2951C27.1278 23.0567 24.845 21.9058 24.4192 21.7467C23.994 21.5879 23.6841 21.5088 23.3748 21.9851C23.0652 22.4613 22.1755 23.5335 21.9045 23.8509C21.6335 24.1685 21.363 24.2084 20.8986 23.9701C20.4342 23.7319 18.9382 23.2292 17.1646 21.6078C15.7844 20.3459 14.8527 18.7874 14.5817 18.3112C14.3111 17.8345 14.5794 17.6017 14.7854 17.3399C15.288 16.7002 15.7913 16.0294 15.946 15.712C16.101 15.3944 16.0234 15.1163 15.9071 14.8782C15.7913 14.6401 14.8627 12.2976 14.4759 11.3444C14.0987 10.4168 13.7163 10.542 13.4311 10.5275C13.1605 10.5137 12.8509 10.5108 12.5412 10.5108C12.2317 10.5108 11.7287 10.6298 11.3029 11.1065C10.8774 11.583 9.6781 12.7342 9.6781 15.0767C9.6781 17.4192 11.3418 19.6822 11.5739 19.9999C11.806 20.3175 14.8481 25.1245 19.5056 27.1858C20.6134 27.6766 21.4781 27.9691 22.1526 28.1885C23.265 28.5507 24.2769 28.4996 25.077 28.3771C25.9692 28.2403 27.8238 27.2257 28.2111 26.1141C28.5979 25.0023 28.5979 24.0496 28.4817 23.8509C28.3658 23.6524 28.0562 23.5335 27.592 23.2951Z" fill="#FAFAFA"/>
</svg>
