<svg width="25" height="24" viewBox="0 0 25 24" fill="none" xmlns="http://www.w3.org/2000/svg">
<g clip-path="url(#clip0)">
<path d="M13.0723 11.9971L24.8817 0.660073C25.0391 0.508941 25.0391 0.263956 24.8817 0.112824C24.7243 -0.0382592 24.4691 -0.0382592 24.3117 0.112824L12.5023 11.4499L0.692877 0.112824C0.532727 -0.0356468 0.277535 -0.0313896 0.122827 0.122355C-0.0280507 0.272326 -0.0280507 0.510102 0.122827 0.660073L11.9322 11.9971L0.122827 23.3341C-0.0373231 23.4827 -0.0417577 23.7276 0.11295 23.8814C0.267658 24.0351 0.52285 24.0394 0.683 23.8909C0.686377 23.8878 0.689652 23.8846 0.692877 23.8814L12.5023 12.5444L24.3117 23.8814C24.4718 24.0299 24.727 24.0256 24.8817 23.8719C25.0326 23.7219 25.0326 23.4841 24.8817 23.3341L13.0723 11.9971Z" fill="#FAFAFA" fill-opacity="0.95"/>
</g>
<defs>
<clipPath id="clip0">
<rect width="25" height="24" fill="white"/>
</clipPath>
</defs>
</svg>
