<svg width="76" height="72" viewBox="0 0 76 72" fill="none" xmlns="http://www.w3.org/2000/svg">
<g clip-path="url(#clip0)">
<path d="M21.0108 0.529771C20.3547 -0.0629709 19.309 -0.0458823 18.6752 0.567714C18.057 1.16639 18.057 2.11539 18.6752 2.71392L53.8438 35.6074L18.6719 68.4979C18.0158 69.0906 17.9977 70.0684 18.6313 70.6822C19.2651 71.2958 20.3107 71.3127 20.9669 70.7201C20.9807 70.7077 20.9942 70.6951 21.0075 70.6822L57.3455 36.6981C57.9903 36.0949 57.9903 35.1171 57.3455 34.5138L21.0108 0.529771Z" fill="#FAFAFA"/>
<path d="M19.8412 71.1365C18.929 71.1381 18.1882 70.4476 18.1865 69.5945C18.1858 69.1832 18.3604 68.7885 18.6718 68.498L53.8437 35.6076L18.6718 2.71727C18.0259 2.11323 18.0259 1.13397 18.6718 0.529933C19.3177 -0.0741052 20.3648 -0.0741052 21.0107 0.529933L57.3487 34.5141C57.9935 35.1172 57.9935 36.095 57.3487 36.6984L21.0107 70.6823C20.701 70.973 20.2801 71.1365 19.8412 71.1365Z" fill="#FAFAFA"/>
</g>
<defs>
<clipPath id="clip0">
<rect width="76" height="71.0769" fill="white" transform="translate(0 0.0769348)"/>
</clipPath>
</defs>
</svg>
