<svg width="76" height="66" viewBox="0 0 76 66" fill="none" xmlns="http://www.w3.org/2000/svg">
<g clip-path="url(#clip0)">
<path d="M54.9892 0.420733C55.6453 -0.12967 56.691 -0.113802 57.3248 0.455965C57.943 1.01188 57.943 1.89309 57.3248 2.44888L22.1562 32.9928L57.3281 63.534C57.9842 64.0844 58.0023 64.9924 57.3687 65.5623C56.7349 66.132 55.6893 66.1478 55.0331 65.5975C55.0193 65.5859 55.0058 65.5742 54.9925 65.5623L18.6545 34.0056C18.0097 33.4455 18.0097 32.5375 18.6545 31.9773L54.9892 0.420733Z" fill="#FFAE4D"/>
<path d="M56.1588 65.9839C57.071 65.9854 57.8118 65.3442 57.8135 64.552C57.8142 64.1701 57.6396 63.8037 57.3282 63.5339L22.1563 32.9928L57.3282 2.45177C57.9741 1.89088 57.9741 0.981562 57.3282 0.420669C56.6823 -0.140223 55.6352 -0.140223 54.9893 0.420669L18.6513 31.9774C18.0065 32.5374 18.0065 33.4454 18.6513 34.0056L54.9893 65.5622C55.299 65.8321 55.7199 65.9839 56.1588 65.9839Z" fill="#FFAE4D"/>
</g>
<defs>
<clipPath id="clip0">
<rect width="76" height="66" fill="white" transform="matrix(-1 0 0 1 76 0)"/>
</clipPath>
</defs>
</svg>
