<svg width="24" height="24" viewBox="0 0 24 24" fill="none" xmlns="http://www.w3.org/2000/svg">
<g clip-path="url(#clip0)">
<path d="M23.847 12.6703C24.0471 12.8775 24.0414 13.2077 23.8342 13.4079C23.632 13.6031 23.3116 13.6031 23.1095 13.4079L12.0026 2.30199L0.896716 13.4089C0.696569 13.6161 0.366398 13.6218 0.159161 13.4217C-0.0480277 13.2215 -0.0537486 12.8914 0.146349 12.6841C0.150555 12.6798 0.154809 12.6755 0.159161 12.6713L11.6343 1.19617C11.838 0.992547 12.1682 0.992547 12.3719 1.19617L23.847 12.6703Z" fill="#FFAE4D"/>
<path d="M12.3718 10.5838L23.847 22.059C24.0471 22.2662 24.0414 22.5964 23.8342 22.7965C23.632 22.9918 23.3116 22.9918 23.1094 22.7965L12.0025 11.6907L0.896716 22.7976C0.696569 23.0048 0.366398 23.0105 0.159161 22.8104C-0.0480277 22.6102 -0.0537486 22.2801 0.146349 22.0728C0.150555 22.0685 0.154809 22.0642 0.159161 22.06L11.6343 10.5849C11.8377 10.381 12.1679 10.3805 12.3718 10.5838Z" fill="#FFAE4D"/>
<path d="M0.00587968 13.0395C0.00534178 13.3275 0.238495 13.5615 0.526563 13.562C0.665439 13.5623 0.798691 13.5071 0.896784 13.4088L12.0027 2.30186L23.1085 13.4088C23.3157 13.6089 23.6459 13.6031 23.846 13.3959C24.0412 13.1938 24.0412 12.8734 23.846 12.6713L12.3709 1.19609C12.1672 0.992475 11.837 0.992475 11.6333 1.19609L0.158202 12.6712C0.0606469 12.769 0.00587968 12.9014 0.00587968 13.0395Z" fill="#FFAE4D"/>
<path d="M0.00585669 22.4281C0.0053188 22.7162 0.238472 22.9501 0.52654 22.9507C0.665416 22.9509 0.798668 22.8958 0.896761 22.7974L12.0026 11.6905L23.1084 22.7974C23.3124 23.0014 23.6431 23.0014 23.847 22.7974C24.051 22.5935 24.051 22.2628 23.847 22.0588L12.3719 10.5837C12.1682 10.3801 11.838 10.3801 11.6343 10.5837L0.159206 22.0588C0.0610639 22.1567 0.00585669 22.2896 0.00585669 22.4281Z" fill="#FFAE4D"/>
</g>
<defs>
<clipPath id="clip0">
<rect width="24" height="24" fill="white" transform="matrix(0 -1 -1 0 24 24)"/>
</clipPath>
</defs>
</svg>
