<svg width="48" height="48" viewBox="0 0 48 48" fill="none" xmlns="http://www.w3.org/2000/svg">
<g clip-path="url(#clip0)">
<path d="M47.694 25.3404C48.0943 25.7547 48.0827 26.4152 47.6683 26.8155C47.264 27.2059 46.6232 27.2059 46.219 26.8155L24.0052 4.60373L1.79343 26.8175C1.39314 27.2319 0.732796 27.2434 0.318321 26.8431C-0.0960541 26.4428 -0.107498 25.7825 0.292698 25.368C0.301109 25.3593 0.309616 25.3508 0.318321 25.3424L23.2686 2.39209C23.676 1.98485 24.3363 1.98485 24.7437 2.39209L47.694 25.3404Z" fill="#FFAE4D"/>
<path d="M24.7437 21.1674L47.694 44.1177C48.0943 44.5321 48.0827 45.1925 47.6683 45.5928C47.264 45.9833 46.6232 45.9833 46.2189 45.5928L24.0051 23.3811L1.79343 45.5949C1.39314 46.0093 0.732796 46.0207 0.318321 45.6205C-0.0960541 45.2202 -0.107498 44.5599 0.292698 44.1454C0.301109 44.1367 0.309616 44.1282 0.318321 44.1198L23.2686 21.1695C23.6754 20.7617 24.3357 20.7608 24.7437 21.1674Z" fill="#FFAE4D"/>
<path d="M0.0117607 26.0789C0.010685 26.6551 0.47699 27.1229 1.05313 27.124C1.33088 27.1245 1.59738 27.0142 1.79357 26.8175L24.0053 4.60373L46.2169 26.8175C46.6313 27.2178 47.2918 27.2063 47.6921 26.7919C48.0825 26.3876 48.0825 25.7467 47.6921 25.3425L24.7417 2.39219C24.3344 1.98495 23.6741 1.98495 23.2666 2.39219L0.316402 25.3424C0.121292 25.5379 0.0117607 25.8027 0.0117607 26.0789Z" fill="#FFAE4D"/>
<path d="M0.0117149 44.8563C0.0106392 45.4324 0.476944 45.9003 1.05308 45.9014C1.33083 45.9019 1.59734 45.7915 1.79352 45.5949L24.0053 23.3811L46.2169 45.5949C46.6248 46.0028 47.2861 46.0028 47.6941 45.5949C48.102 45.1869 48.102 44.5256 47.6941 44.1177L24.7437 21.1674C24.3364 20.7601 23.6761 20.7601 23.2686 21.1674L0.318413 44.1177C0.122128 44.3134 0.0117149 44.5791 0.0117149 44.8563Z" fill="#FFAE4D"/>
</g>
<defs>
<clipPath id="clip0">
<rect width="48" height="48" fill="white" transform="matrix(0 -1 -1 0 48 48)"/>
</clipPath>
</defs>
</svg>
